<mxfile host="app.diagrams.net" modified="2024-03-29T17:07:06.322Z" agent="Mozilla/5.0 (Macintosh; Intel Mac OS X 10_15_7) AppleWebKit/537.36 (KHTML, like Gecko) Chrome/121.0.0.0 Safari/537.36" etag="iaI0e2sMAy0pbyx10PP9" version="24.0.3" type="github">
  <diagram id="C5RBs43oDa-KdzZeNtuy" name="Page-1">
    <mxGraphModel dx="1242" dy="786" grid="1" gridSize="10" guides="1" tooltips="1" connect="1" arrows="1" fold="1" page="1" pageScale="1" pageWidth="827" pageHeight="1169" math="0" shadow="0">
      <root>
        <mxCell id="WIyWlLk6GJQsqaUBKTNV-0" />
        <mxCell id="WIyWlLk6GJQsqaUBKTNV-1" parent="WIyWlLk6GJQsqaUBKTNV-0" />
        <mxCell id="h0Dq9016yh8tiO814EDE-5" value="Config" style="swimlane;fontStyle=1;align=center;verticalAlign=top;childLayout=stackLayout;horizontal=1;startSize=26;horizontalStack=0;resizeParent=1;resizeParentMax=0;resizeLast=0;collapsible=1;marginBottom=0;whiteSpace=wrap;html=1;" parent="WIyWlLk6GJQsqaUBKTNV-1" vertex="1">
          <mxGeometry x="90" y="470" width="170" height="270" as="geometry" />
        </mxCell>
        <mxCell id="h0Dq9016yh8tiO814EDE-6" value="&lt;div&gt;&lt;div&gt;+ Host: string&lt;/div&gt;&lt;div&gt;&lt;span style=&quot;white-space: normal;&quot;&gt;+ APIPath: string&lt;/span&gt;&lt;/div&gt;&lt;div&gt;&lt;span style=&quot;white-space: normal;&quot;&gt;+ ContentConfig&lt;/span&gt;&lt;/div&gt;&lt;div&gt;&lt;span style=&quot;white-space: normal;&quot;&gt;+ Username: string&lt;/span&gt;&lt;/div&gt;&lt;div&gt;&lt;span style=&quot;white-space: normal;&quot;&gt;+ Password: string&lt;/span&gt;&lt;/div&gt;&lt;div&gt;&lt;span style=&quot;background-color: initial;&quot;&gt;+ SecretID: string&lt;/span&gt;&lt;br&gt;&lt;/div&gt;&lt;div&gt;&lt;span style=&quot;white-space: normal;&quot;&gt;+ SecretKey: string&lt;/span&gt;&lt;/div&gt;&lt;div&gt;&lt;span style=&quot;white-space: normal;&quot;&gt;+ BearerToken: string&lt;/span&gt;&lt;/div&gt;&lt;div&gt;&lt;span style=&quot;background-color: initial;&quot;&gt;+ BearerTokenFile: string&lt;/span&gt;&lt;/div&gt;&lt;div&gt;&lt;span style=&quot;background-color: initial;&quot;&gt;+ TLSClientConfig&lt;/span&gt;&lt;br&gt;&lt;/div&gt;&lt;div&gt;&lt;span style=&quot;background-color: initial;&quot;&gt;+ UserAgent: string&lt;/span&gt;&lt;br&gt;&lt;/div&gt;&lt;div&gt;&lt;span style=&quot;background-color: initial;&quot;&gt;+ Timeout: time.Duration&lt;/span&gt;&lt;br&gt;&lt;/div&gt;&lt;div&gt;&lt;span style=&quot;white-space: normal;&quot;&gt;+ MaxRetries: int&lt;/span&gt;&lt;/div&gt;&lt;div&gt;&lt;span style=&quot;white-space: normal;&quot;&gt;+ RetryInterval: time.Duration&lt;/span&gt;&lt;/div&gt;&lt;/div&gt;&lt;div&gt;&lt;br&gt;&lt;/div&gt;" style="text;strokeColor=none;fillColor=none;align=left;verticalAlign=top;spacingLeft=4;spacingRight=4;overflow=hidden;rotatable=0;points=[[0,0.5],[1,0.5]];portConstraint=eastwest;whiteSpace=wrap;html=1;" parent="h0Dq9016yh8tiO814EDE-5" vertex="1">
          <mxGeometry y="26" width="170" height="214" as="geometry" />
        </mxCell>
        <mxCell id="h0Dq9016yh8tiO814EDE-7" value="" style="line;strokeWidth=1;fillColor=none;align=left;verticalAlign=middle;spacingTop=-1;spacingLeft=3;spacingRight=3;rotatable=0;labelPosition=right;points=[];portConstraint=eastwest;strokeColor=inherit;" parent="h0Dq9016yh8tiO814EDE-5" vertex="1">
          <mxGeometry y="240" width="170" height="8" as="geometry" />
        </mxCell>
        <mxCell id="h0Dq9016yh8tiO814EDE-8" value="+ String(): string&lt;div&gt;&lt;br/&gt;&lt;/div&gt;" style="text;strokeColor=none;fillColor=none;align=left;verticalAlign=top;spacingLeft=4;spacingRight=4;overflow=hidden;rotatable=0;points=[[0,0.5],[1,0.5]];portConstraint=eastwest;whiteSpace=wrap;html=1;" parent="h0Dq9016yh8tiO814EDE-5" vertex="1">
          <mxGeometry y="248" width="170" height="22" as="geometry" />
        </mxCell>
        <mxCell id="h0Dq9016yh8tiO814EDE-15" value="TLSClientConfig" style="swimlane;fontStyle=1;align=center;verticalAlign=top;childLayout=stackLayout;horizontal=1;startSize=26;horizontalStack=0;resizeParent=1;resizeParentMax=0;resizeLast=0;collapsible=1;marginBottom=0;whiteSpace=wrap;html=1;" parent="WIyWlLk6GJQsqaUBKTNV-1" vertex="1">
          <mxGeometry x="300" y="470" width="140" height="230" as="geometry" />
        </mxCell>
        <mxCell id="h0Dq9016yh8tiO814EDE-16" value="&lt;div&gt;+ Insecure: bool&lt;/div&gt;&lt;div&gt;&lt;span style=&quot;background-color: initial;&quot;&gt;+ ServerName: string&lt;/span&gt;&lt;/div&gt;&lt;div&gt;&lt;span style=&quot;background-color: initial;&quot;&gt;+ client: certificate&amp;nbsp;&lt;/span&gt;&lt;/div&gt;&lt;div&gt;&lt;span style=&quot;background-color: initial;&quot;&gt;+ KeyFile: string&lt;/span&gt;&lt;/div&gt;&lt;div&gt;&lt;span style=&quot;background-color: initial;&quot;&gt;+ CAFile: string&lt;/span&gt;&lt;br&gt;&lt;/div&gt;&lt;div&gt;&lt;span style=&quot;background-color: initial;&quot;&gt;+ CertData: []byte&lt;/span&gt;&lt;br&gt;&lt;/div&gt;&lt;div&gt;&lt;span style=&quot;background-color: initial;&quot;&gt;+ KeyData: []byte&lt;/span&gt;&lt;br&gt;&lt;/div&gt;&lt;div&gt;&lt;span style=&quot;background-color: initial;&quot;&gt;+ CAData: []byte&lt;/span&gt;&lt;br&gt;&lt;/div&gt;&lt;div&gt;&lt;span style=&quot;background-color: initial;&quot;&gt;+ NextProtos: []string&lt;/span&gt;&lt;br&gt;&lt;/div&gt;" style="text;strokeColor=none;fillColor=none;align=left;verticalAlign=top;spacingLeft=4;spacingRight=4;overflow=hidden;rotatable=0;points=[[0,0.5],[1,0.5]];portConstraint=eastwest;whiteSpace=wrap;html=1;" parent="h0Dq9016yh8tiO814EDE-15" vertex="1">
          <mxGeometry y="26" width="140" height="144" as="geometry" />
        </mxCell>
        <mxCell id="h0Dq9016yh8tiO814EDE-17" value="" style="line;strokeWidth=1;fillColor=none;align=left;verticalAlign=middle;spacingTop=-1;spacingLeft=3;spacingRight=3;rotatable=0;labelPosition=right;points=[];portConstraint=eastwest;strokeColor=inherit;" parent="h0Dq9016yh8tiO814EDE-15" vertex="1">
          <mxGeometry y="170" width="140" height="8" as="geometry" />
        </mxCell>
        <mxCell id="h0Dq9016yh8tiO814EDE-18" value="+ String(): string&lt;div&gt;+ HasCA(): bool&lt;/div&gt;&lt;div&gt;+&amp;nbsp;HasCertAuth(); bool&lt;/div&gt;&lt;div&gt;&lt;div&gt;&lt;br&gt;&lt;/div&gt;&lt;/div&gt;" style="text;strokeColor=none;fillColor=none;align=left;verticalAlign=top;spacingLeft=4;spacingRight=4;overflow=hidden;rotatable=0;points=[[0,0.5],[1,0.5]];portConstraint=eastwest;whiteSpace=wrap;html=1;" parent="h0Dq9016yh8tiO814EDE-15" vertex="1">
          <mxGeometry y="178" width="140" height="52" as="geometry" />
        </mxCell>
        <mxCell id="h0Dq9016yh8tiO814EDE-19" value="TLSClientConfig" style="swimlane;fontStyle=1;align=center;verticalAlign=top;childLayout=stackLayout;horizontal=1;startSize=26;horizontalStack=0;resizeParent=1;resizeParentMax=0;resizeLast=0;collapsible=1;marginBottom=0;whiteSpace=wrap;html=1;" parent="WIyWlLk6GJQsqaUBKTNV-1" vertex="1">
          <mxGeometry x="300" y="740" width="190" height="110" as="geometry" />
        </mxCell>
        <mxCell id="h0Dq9016yh8tiO814EDE-20" value="&lt;div&gt;&lt;div&gt;+ ServiceName: string&lt;/div&gt;&lt;div&gt;&lt;span style=&quot;white-space: normal;&quot;&gt;+ AcceptContentTypes: string&lt;/span&gt;&lt;/div&gt;&lt;div&gt;&lt;span style=&quot;white-space: normal;&quot;&gt;+ ContentType: string&lt;/span&gt;&lt;/div&gt;&lt;div&gt;&lt;span style=&quot;white-space: normal;&quot;&gt;+ GroupVersion: *GroupVersion&lt;/span&gt;&lt;/div&gt;&lt;div&gt;&lt;span style=&quot;white-space: normal;&quot;&gt;+ Negotiator: ClientNegotiator&lt;/span&gt;&lt;/div&gt;&lt;/div&gt;" style="text;strokeColor=none;fillColor=none;align=left;verticalAlign=top;spacingLeft=4;spacingRight=4;overflow=hidden;rotatable=0;points=[[0,0.5],[1,0.5]];portConstraint=eastwest;whiteSpace=wrap;html=1;" parent="h0Dq9016yh8tiO814EDE-19" vertex="1">
          <mxGeometry y="26" width="190" height="84" as="geometry" />
        </mxCell>
        <mxCell id="h0Dq9016yh8tiO814EDE-26" value="ClientContentConfig" style="swimlane;fontStyle=1;align=center;verticalAlign=top;childLayout=stackLayout;horizontal=1;startSize=26;horizontalStack=0;resizeParent=1;resizeParentMax=0;resizeLast=0;collapsible=1;marginBottom=0;whiteSpace=wrap;html=1;" parent="WIyWlLk6GJQsqaUBKTNV-1" vertex="1">
          <mxGeometry x="510" y="470" width="180" height="260" as="geometry" />
        </mxCell>
        <mxCell id="h0Dq9016yh8tiO814EDE-27" value="&lt;div&gt;&lt;div&gt;+ Username: string&lt;/div&gt;&lt;div&gt;+ Password: string&lt;/div&gt;&lt;div&gt;+ SecretID: string&lt;/div&gt;&lt;div&gt;+ SecretKey: string&lt;/div&gt;&lt;div&gt;+ BearerToken: string&lt;br&gt;&lt;/div&gt;&lt;div&gt;+ BearerTokenFile: string&lt;/div&gt;&lt;div&gt;+ TLSClientConfig&lt;br&gt;&lt;/div&gt;&lt;div&gt;+ AcceptContentTypes: string&lt;/div&gt;&lt;div&gt;&lt;div&gt;+ ContentType: string&lt;/div&gt;&lt;div&gt;+ GroupVersion: GroupVersion&lt;/div&gt;&lt;div&gt;+ Negotiator: ClientNegotiator&lt;/div&gt;&lt;/div&gt;&lt;/div&gt;" style="text;strokeColor=none;fillColor=none;align=left;verticalAlign=top;spacingLeft=4;spacingRight=4;overflow=hidden;rotatable=0;points=[[0,0.5],[1,0.5]];portConstraint=eastwest;whiteSpace=wrap;html=1;" parent="h0Dq9016yh8tiO814EDE-26" vertex="1">
          <mxGeometry y="26" width="180" height="174" as="geometry" />
        </mxCell>
        <mxCell id="h0Dq9016yh8tiO814EDE-28" value="" style="line;strokeWidth=1;fillColor=none;align=left;verticalAlign=middle;spacingTop=-1;spacingLeft=3;spacingRight=3;rotatable=0;labelPosition=right;points=[];portConstraint=eastwest;strokeColor=inherit;" parent="h0Dq9016yh8tiO814EDE-26" vertex="1">
          <mxGeometry y="200" width="180" height="8" as="geometry" />
        </mxCell>
        <mxCell id="h0Dq9016yh8tiO814EDE-29" value="+ HasBasicAuth(): bool&lt;div&gt;+ HasTokenAuth(): bool&lt;/div&gt;&lt;div&gt;+&amp;nbsp;HasKeyAuth(); bool&lt;/div&gt;&lt;div&gt;&lt;div&gt;&lt;br&gt;&lt;/div&gt;&lt;/div&gt;" style="text;strokeColor=none;fillColor=none;align=left;verticalAlign=top;spacingLeft=4;spacingRight=4;overflow=hidden;rotatable=0;points=[[0,0.5],[1,0.5]];portConstraint=eastwest;whiteSpace=wrap;html=1;" parent="h0Dq9016yh8tiO814EDE-26" vertex="1">
          <mxGeometry y="208" width="180" height="52" as="geometry" />
        </mxCell>
        <mxCell id="h0Dq9016yh8tiO814EDE-30" value="" style="endArrow=open;endFill=1;endSize=12;html=1;rounded=0;exitX=0.988;exitY=0.603;exitDx=0;exitDy=0;exitPerimeter=0;" parent="WIyWlLk6GJQsqaUBKTNV-1" source="h0Dq9016yh8tiO814EDE-6" target="h0Dq9016yh8tiO814EDE-16" edge="1">
          <mxGeometry width="160" relative="1" as="geometry">
            <mxPoint x="330" y="860" as="sourcePoint" />
            <mxPoint x="490" y="860" as="targetPoint" />
          </mxGeometry>
        </mxCell>
        <mxCell id="h0Dq9016yh8tiO814EDE-32" value="" style="endArrow=open;endFill=1;endSize=12;html=1;rounded=0;entryX=-0.005;entryY=-0.06;entryDx=0;entryDy=0;entryPerimeter=0;" parent="WIyWlLk6GJQsqaUBKTNV-1" target="h0Dq9016yh8tiO814EDE-20" edge="1">
          <mxGeometry width="160" relative="1" as="geometry">
            <mxPoint x="260" y="620" as="sourcePoint" />
            <mxPoint x="310" y="614" as="targetPoint" />
          </mxGeometry>
        </mxCell>
        <mxCell id="h0Dq9016yh8tiO814EDE-33" value="" style="endArrow=open;endFill=1;endSize=12;html=1;rounded=0;exitX=0;exitY=0.5;exitDx=0;exitDy=0;entryX=0.905;entryY=-0.018;entryDx=0;entryDy=0;entryPerimeter=0;" parent="WIyWlLk6GJQsqaUBKTNV-1" source="h0Dq9016yh8tiO814EDE-27" target="h0Dq9016yh8tiO814EDE-19" edge="1">
          <mxGeometry width="160" relative="1" as="geometry">
            <mxPoint x="278" y="645" as="sourcePoint" />
            <mxPoint x="320" y="624" as="targetPoint" />
          </mxGeometry>
        </mxCell>
        <mxCell id="h0Dq9016yh8tiO814EDE-34" value="RESTClient" style="swimlane;fontStyle=1;align=center;verticalAlign=top;childLayout=stackLayout;horizontal=1;startSize=26;horizontalStack=0;resizeParent=1;resizeParentMax=0;resizeLast=0;collapsible=1;marginBottom=0;whiteSpace=wrap;html=1;" parent="WIyWlLk6GJQsqaUBKTNV-1" vertex="1">
          <mxGeometry x="510" y="760" width="180" height="200" as="geometry" />
        </mxCell>
        <mxCell id="h0Dq9016yh8tiO814EDE-35" value="&lt;div&gt;+ base: *url.URL&lt;/div&gt;&lt;div&gt;&lt;span style=&quot;background-color: initial;&quot;&gt;+ group: string&lt;/span&gt;&lt;br&gt;&lt;/div&gt;&lt;div&gt;&lt;span style=&quot;background-color: initial;&quot;&gt;+ versionedAPIPath: string&lt;/span&gt;&lt;br&gt;&lt;/div&gt;&lt;div&gt;&lt;span style=&quot;background-color: initial;&quot;&gt;+ content: ClientContentConfig&lt;/span&gt;&lt;br&gt;&lt;/div&gt;&lt;div&gt;&lt;span style=&quot;white-space: normal;&quot;&gt;+ Client: SuperAgent&lt;/span&gt;&lt;/div&gt;" style="text;strokeColor=none;fillColor=none;align=left;verticalAlign=top;spacingLeft=4;spacingRight=4;overflow=hidden;rotatable=0;points=[[0,0.5],[1,0.5]];portConstraint=eastwest;whiteSpace=wrap;html=1;" parent="h0Dq9016yh8tiO814EDE-34" vertex="1">
          <mxGeometry y="26" width="180" height="84" as="geometry" />
        </mxCell>
        <mxCell id="h0Dq9016yh8tiO814EDE-36" value="" style="line;strokeWidth=1;fillColor=none;align=left;verticalAlign=middle;spacingTop=-1;spacingLeft=3;spacingRight=3;rotatable=0;labelPosition=right;points=[];portConstraint=eastwest;strokeColor=inherit;" parent="h0Dq9016yh8tiO814EDE-34" vertex="1">
          <mxGeometry y="110" width="180" height="8" as="geometry" />
        </mxCell>
        <mxCell id="h0Dq9016yh8tiO814EDE-37" value="+ Verb(string): bool&lt;div&gt;+ Post(): bool&lt;/div&gt;&lt;div&gt;+&amp;nbsp;Put(); bool&lt;/div&gt;&lt;div&gt;&lt;div&gt;+&amp;nbsp;Delete(): *Request&lt;/div&gt;&lt;/div&gt;&lt;div&gt;+&amp;nbsp;APIVersion: GroupVersion&lt;/div&gt;" style="text;strokeColor=none;fillColor=none;align=left;verticalAlign=top;spacingLeft=4;spacingRight=4;overflow=hidden;rotatable=0;points=[[0,0.5],[1,0.5]];portConstraint=eastwest;whiteSpace=wrap;html=1;" parent="h0Dq9016yh8tiO814EDE-34" vertex="1">
          <mxGeometry y="118" width="180" height="82" as="geometry" />
        </mxCell>
        <mxCell id="h0Dq9016yh8tiO814EDE-38" value="" style="endArrow=open;endFill=1;endSize=12;html=1;rounded=0;exitX=0.5;exitY=0;exitDx=0;exitDy=0;entryX=0.506;entryY=1.077;entryDx=0;entryDy=0;entryPerimeter=0;" parent="WIyWlLk6GJQsqaUBKTNV-1" source="h0Dq9016yh8tiO814EDE-34" target="h0Dq9016yh8tiO814EDE-29" edge="1">
          <mxGeometry width="160" relative="1" as="geometry">
            <mxPoint x="520" y="593" as="sourcePoint" />
            <mxPoint x="482" y="748" as="targetPoint" />
          </mxGeometry>
        </mxCell>
      </root>
    </mxGraphModel>
  </diagram>
</mxfile>
